<svg xmlns="http://www.w3.org/2000/svg" width="19" height="23" fill="none" viewBox="0 0 19 23"><path fill="#783cb5" d="M8.242.85c-.695.505-2.435 1.723-3.856 2.703L1.792 5.336l-.015 2.28c0 1.256-.014 2.415-.022 2.578-.029.46-.094 1.092-.137 1.3a7 7 0 0 0-.08.557c-.03.2-.058.438-.073.52-.087.468-.116.61-.16.743a3 3 0 0 0-.064.2c-.008.038-.015.067-.03.075a1 1 0 0 0-.036.156 1.5 1.5 0 0 1-.08.26 1.5 1.5 0 0 0-.079.274c-.015.075-.058.164-.102.194-.043.022-.072.074-.065.111.015.111-.311.773-.377.773-.036 0-.043.03-.021.074.021.037.007.074-.037.074-.043 0-.058.037-.036.074.022.045-.007.097-.065.12-.065.021-.094.074-.073.11.022.038-.014.09-.072.112-.065.022-.094.074-.073.111s0 .067-.05.067c-.066 0-.058.03.014.09.065.051.392.482.74.95 1.609 2.214 3.21 3.982 4.972 5.49l.384.326-.123-.29c-.566-1.322-.754-3.342-.508-5.266.13-.995.689-3.543.79-3.617.051-.037.037-.06-.029-.06-.362 0-1.819-.899-2.348-1.44-.16-.164-.326-.29-.37-.283-.036.015-.05 0-.021-.022.029-.03-.015-.193-.102-.357a5 5 0 0 1-.217-.535c-.073-.252-.276-2.213-.232-2.258.065-.074 1.486.424 3.348 1.166l1.986.795-.036.825a25 25 0 0 1-.203 1.983l-.16 1.159.24.282c.13.156.5.557.812.899l.58.616.405-.468c.225-.26.588-.66.812-.89.225-.239.399-.447.384-.462-.094-.096-.282-1.804-.348-3.164-.043-.772-.036-.787.124-.795.094-.007.174-.052.188-.089s.073-.052.13-.03c.059.023.102.008.102-.03 0-.036.073-.074.16-.074.094-.007.174-.052.188-.089s.065-.059.116-.037c.058.023.145-.007.196-.067.058-.052.137-.089.18-.074.052.015.131-.015.182-.074.058-.052.138-.09.181-.074.051.014.13-.015.181-.075.059-.052.138-.089.182-.074.05.015.13-.015.18-.067a.5.5 0 0 1 .247-.119.4.4 0 0 0 .182-.074.15.15 0 0 1 .108-.052c.138 0 .834-.29.834-.35 0-.029.05-.036.109-.014.058.03.108.015.108-.015 0-.037.087-.074.189-.082.109 0 .21-.037.239-.074.022-.03.08-.06.116-.06.167-.007.543-.126.543-.178 0-.03.066-.051.146-.059.123-.015.137.022.108.297-.021.171-.072.639-.108 1.033-.095.95-.283 1.44-.747 1.968-.406.453-1.443 1.189-2.051 1.441l-.37.164.094.378c.254.959.61 2.83.689 3.603.101 1.033.05 2.66-.116 3.462a9 9 0 0 1-.355 1.203l-.24.609.363-.305c1.609-1.381 3.566-3.558 5.117-5.69.34-.453.645-.831.674-.831.036 0 .007-.097-.058-.216-.072-.126-.16-.2-.203-.178s-.058.022-.029-.015c.066-.074-.137-.483-.239-.483-.043 0-.05-.037-.029-.074.022-.045.007-.074-.036-.074-.044 0-.058-.037-.036-.075.021-.044.007-.074-.037-.074-.043 0-.058-.037-.036-.074.022-.045.007-.075-.029-.075-.043 0-.072-.022-.072-.059.021-.148-.015-.312-.095-.401-.05-.052-.094-.134-.094-.17a9 9 0 0 0-.174-.625c-.435-1.433-.572-2.934-.594-6.336l-.007-1.946-1.928-1.33a500 500 0 0 1-3.675-2.562C10.656.73 9.793.129 9.693.055c-.182-.12-.19-.12-1.45.794"/></svg>