<svg xmlns="http://www.w3.org/2000/svg" width="26" height="26" fill="none" viewBox="0 0 26 26"><path fill="#783cb5" d="M15.794 2.52a.81.81 0 0 0-.855.089L7.846 8.125H3.25A1.625 1.625 0 0 0 1.625 9.75v6.5a1.625 1.625 0 0 0 1.625 1.625h4.596l7.093 5.516a.813.813 0 0 0 1.311-.641V3.25a.81.81 0 0 0-.456-.73M7.313 16.25H3.25v-6.5h4.063zm12.796-5.935a4.06 4.06 0 0 1 0 5.37.813.813 0 0 1-1.218-1.074 2.44 2.44 0 0 0 0-3.222.813.813 0 0 1 1.218-1.074M25.187 13a8.12 8.12 0 0 1-2.068 5.417.813.813 0 0 1-1.211-1.084 6.5 6.5 0 0 0 0-8.666.813.813 0 1 1 1.21-1.083A8.1 8.1 0 0 1 25.189 13"/></svg>